<?xml version="1.0" encoding="UTF-8"?>
<svg version="1.1" xmlns="http://www.w3.org/2000/svg" width="200" height="200">
<path d="M0 0 C10.3047321 -0.54958571 21.71248168 2.8262283 30.859375 7.41796875 C37.99288739 10.72109514 48.18764955 10.34585754 55.73046875 8.49609375 C58.41481481 7.49681164 61.02823348 6.38842125 63.65625 5.25 C65.75266908 4.49884859 67.85714074 3.76982433 69.96875 3.0625 C70.91363281 2.73894531 71.85851562 2.41539063 72.83203125 2.08203125 C85.63264212 -1.68910307 99.70298051 -0.1356072 111.53125 6 C120.98879354 11.66619349 128.47259972 18.47195365 131.5390625 29.39453125 C133.51956758 39.96140331 132.43559535 48.85167208 126.46875 57.90234375 C118.49843033 68.22596901 107.06064083 74.20776847 94.19140625 76.00390625 C93.35480469 76.08511719 92.51820313 76.16632813 91.65625 76.25 C90.93308594 76.32089844 90.20992187 76.39179688 89.46484375 76.46484375 C78.94732489 76.94907574 68.64362581 73.61415619 59.1796875 69.3359375 C50.79278003 65.72671107 39.43842277 65.8237897 30.90625 69 C29.15285349 69.74202473 27.40291135 70.49225721 25.65625 71.25 C13.2267889 75.75411027 13.2267889 75.75411027 6.65625 76.25 C6.01945312 76.3015625 5.38265625 76.353125 4.7265625 76.40625 C-8.84526426 77.00281381 -21.16189231 72.41135664 -31.65625 64 C-39.60102352 56.52832388 -42.92490003 48.08774289 -43.34375 37.25 C-42.90703833 27.04186473 -38.5543703 19.04583529 -31.28125 12 C-22.10448161 4.38096876 -11.63754909 1.24133857 0 0 Z M-17.34375 36.25 C-17.30594702 38.62233611 -17.30594702 38.62233611 -16.34375 41.25 C-9.32740561 47.38930134 -0.57126316 47.6609048 8.3671875 47.50390625 C15.62142079 46.94390012 22.36689199 45.53935801 27.65625 40.25 C27.61844702 37.87766389 27.61844702 37.87766389 26.65625 35.25 C19.63990561 29.11069866 10.88376316 28.8390952 1.9453125 28.99609375 C-5.30892079 29.55609988 -12.05439199 30.96064199 -17.34375 36.25 Z M61.65625 36.25 C61.69405298 38.62233611 61.69405298 38.62233611 62.65625 41.25 C69.67259439 47.38930134 78.42873684 47.6609048 87.3671875 47.50390625 C94.62142079 46.94390012 101.36689199 45.53935801 106.65625 40.25 C106.61844702 37.87766389 106.61844702 37.87766389 105.65625 35.25 C98.63990561 29.11069866 89.88376316 28.8390952 80.9453125 28.99609375 C73.69107921 29.55609988 66.94560801 30.96064199 61.65625 36.25 Z " fill="#000000" transform="translate(55.34375,61.75)"/>
</svg>
